<svg width="24" height="24" viewBox="0 0 24 24" fill="none" xmlns="http://www.w3.org/2000/svg">
<path d="M7.34139 0.0643787C6.54062 0.208485 5.88285 0.520712 5.32231 1.02988C4.12116 2.10587 3.97816 3.54212 4.90477 5.24736C5.08208 5.574 5.09924 5.62684 5.01916 5.66526C4.78465 5.77574 3.92096 6.3954 3.45766 6.78928C1.64449 8.31199 0.449056 10.3535 0.0887102 12.5199C-0.0256854 13.2116 -0.0314052 14.5133 0.0829904 15.2434C0.60349 18.5819 3.11447 21.512 6.71794 22.9771C11.3338 24.8649 16.8591 24.0915 20.4969 21.0557C22.2471 19.6002 23.3797 17.7749 23.8658 15.6517C24.0317 14.9024 24.0489 12.957 23.8887 12.2413C23.6428 11.1268 23.3568 10.3967 22.7905 9.42641C21.1261 6.56352 17.9459 4.54124 14.1994 3.95522C13.6389 3.86875 12.6779 3.78709 12.2146 3.78709H11.86L11.8829 3.33557C11.9229 2.57181 11.6598 1.86569 11.0993 1.24124C10.2642 0.309359 8.69698 -0.185402 7.34139 0.0643787ZM9.09737 0.727262C10.0297 1.01067 10.6303 1.49582 11.0135 2.27399C11.1679 2.58622 11.1794 2.65347 11.1736 3.23469C11.1736 3.8015 11.1565 3.90238 10.9906 4.31548C10.5902 5.32902 9.81806 6.36177 8.59974 7.505L8.0964 7.98055L7.78754 7.69715C5.87713 5.93906 4.87045 4.23862 4.99628 2.98971C5.13356 1.58709 6.57494 0.515909 8.23368 0.587961C8.54827 0.602371 8.85141 0.650406 9.09737 0.727262ZM13.1584 4.41635C15.4234 4.60849 17.6313 5.39627 19.3415 6.62597C19.9192 7.03907 19.9192 7.03426 19.2557 7.31287C18.5979 7.58666 18.0317 7.62029 17.3281 7.42815C17.2195 7.39933 16.7447 7.2312 16.27 7.05348C15.1889 6.64038 14.9087 6.57313 14.3195 6.57313C13.5474 6.57313 12.9697 6.8085 12.5235 7.30806C11.6655 8.25916 12.0659 9.57051 13.3815 10.1277C13.9592 10.3727 14.3767 10.4303 15.2976 10.3919C15.738 10.3775 16.2013 10.3583 16.3272 10.3535L16.556 10.3439L16.5731 10.5456C16.596 10.7858 16.5102 10.9347 16.0927 11.4006C15.4234 12.1452 15.3319 12.6496 15.7666 13.1395C15.9954 13.4037 16.6761 13.6295 20.0107 14.5662C21.7552 15.0561 23.1909 15.4644 23.1966 15.474C23.2367 15.5028 22.9392 16.5116 22.7562 16.9727C22.5217 17.5683 21.904 18.6203 21.475 19.1583C21.1318 19.5858 20.5941 20.167 20.5369 20.167C20.5198 20.167 20.4569 20.0133 20.3997 19.826C20.291 19.4561 19.9421 18.7788 19.8277 18.7164C19.7133 18.6539 19.5074 18.6731 19.3529 18.7596L19.2042 18.8365L19.3015 18.6491C19.4845 18.2841 19.616 17.7028 19.616 17.2609C19.616 16.4587 19.3243 15.8775 18.6494 15.3155C17.6198 14.4557 16.2071 14.2587 14.8858 14.7967C13.9249 15.1858 13.0955 16.233 13.0955 17.0592V17.2417L12.758 17.2081C11.9115 17.1312 11.2652 17.5635 11.2652 18.212C11.2652 18.3513 11.3338 18.6491 11.4139 18.8749C11.494 19.0959 11.5626 19.3793 11.5683 19.4994C11.574 19.7491 11.494 19.8644 10.962 20.3544C10.3271 20.9452 10.0468 21.6369 10.0411 22.6504C10.0411 23.0011 10.024 23.2893 9.99537 23.2893C9.83522 23.2893 8.3252 22.9291 7.88477 22.7801C4.43002 21.6369 1.89044 19.2159 0.998155 16.2138L0.843721 15.695L1.11827 15.4308C1.59301 14.96 1.8504 14.8688 2.80561 14.8111C3.69217 14.7631 4.1326 14.6382 4.44146 14.3356C4.67025 14.1194 4.76177 13.8745 4.73317 13.567C4.69885 13.2404 4.59018 13.0675 4.10972 12.5535C3.88093 12.3133 3.65785 12.0443 3.6121 11.953C3.5549 11.8378 3.50914 11.5207 3.48054 10.9683C3.42906 9.92117 3.33183 9.66658 2.75985 8.98448L2.50246 8.67706L2.69121 8.4561C3.22315 7.81723 3.88093 7.20238 4.5387 6.72684C5.18504 6.2609 5.42527 6.11679 5.48246 6.16963C5.50534 6.19365 5.70554 6.42902 5.92861 6.69321C6.38047 7.2312 7.27847 8.12466 7.67886 8.43208C8.09068 8.74911 8.17076 8.7299 8.79994 8.1823C9.45199 7.61068 10.0583 6.97182 10.5216 6.38099C10.922 5.86701 11.4425 5.01199 11.5912 4.6229L11.6884 4.36351H12.1288C12.3691 4.36351 12.8324 4.38753 13.1584 4.41635ZM14.9659 7.2216C15.1317 7.26483 15.6179 7.43295 16.0583 7.60108C17.1451 8.02378 17.534 8.11985 18.1289 8.12466C18.821 8.12946 19.433 7.95654 20.0393 7.59627L20.3139 7.43295L20.4569 7.54343C20.6914 7.72597 21.3034 8.39846 21.6065 8.81156C22.4759 9.98361 23.025 11.2517 23.2424 12.5727C23.3339 13.0915 23.3682 14.6526 23.2996 14.8015C23.2767 14.864 22.7047 14.7151 20.1995 14.0138C16.9563 13.1011 16.3043 12.8801 16.2185 12.6688C16.127 12.443 16.2299 12.2124 16.6418 11.7465C17.1565 11.1605 17.2709 10.9491 17.2709 10.5792C17.2709 10.2286 17.0936 9.91156 16.8305 9.77706C16.6646 9.70021 16.6246 9.6954 16.1213 9.76746C15.5092 9.84912 14.617 9.85872 14.2509 9.79147C13.576 9.65697 12.9983 9.26309 12.8438 8.82597C12.7294 8.50894 12.7294 8.33601 12.8381 8.03339C12.9468 7.72116 13.2728 7.40413 13.6332 7.26483C13.9821 7.13033 14.5254 7.11112 14.9659 7.2216ZM2.33658 9.48405C2.67977 9.92117 2.75413 10.1709 2.79989 11.0644C2.85136 12.0779 2.91428 12.2365 3.52058 12.8609C3.98388 13.3461 4.05824 13.4613 4.05824 13.6871C4.05824 13.8745 3.80657 14.0906 3.50914 14.1579C3.38902 14.1867 2.9772 14.2299 2.59397 14.2539C2.20503 14.2779 1.79892 14.3356 1.65021 14.3836C1.37566 14.4749 0.975276 14.6862 0.855161 14.8111C0.717886 14.9504 0.683567 14.7919 0.683567 13.9369C0.683567 12.3613 1.00388 11.1509 1.78177 9.77706C1.94192 9.49366 2.09635 9.26309 2.11923 9.26309C2.14211 9.26309 2.23935 9.36396 2.33658 9.48405ZM17.0021 15.1474C17.4711 15.2483 17.7285 15.3731 18.1232 15.6806C18.3748 15.8727 18.5293 16.0504 18.6837 16.3098C18.8668 16.6221 18.8953 16.7229 18.9182 17.0976C18.9697 17.9959 18.5922 18.8365 17.6313 19.9605C17.2881 20.3592 16.413 21.2286 16.3615 21.219C16.3386 21.219 16.1384 21.0413 15.9153 20.8251C14.5598 19.5378 13.7819 18.2456 13.7819 17.2849C13.7819 15.8343 15.3548 14.7871 17.0021 15.1474ZM13.0211 17.8902C13.1127 17.9526 13.2156 18.1207 13.3243 18.3993C13.7132 19.3697 14.4225 20.3063 15.6065 21.4063C16.0927 21.8627 16.2814 21.9684 16.4873 21.9011C16.6704 21.8435 17.5512 21.0221 18.106 20.3976C18.3463 20.1286 18.5579 19.8788 18.5693 19.8452C18.6036 19.7683 19.4387 19.3889 19.5074 19.4225C19.576 19.4609 19.7762 20.0325 19.8506 20.4072L19.9135 20.729L19.6504 20.9356C18.535 21.8002 17.168 22.4823 15.7094 22.9002C14.268 23.3181 12.535 23.5103 11.1965 23.4046C10.7275 23.3662 10.7332 23.3758 10.7389 22.6216C10.7389 21.6897 10.922 21.2815 11.6312 20.5849C11.8715 20.3544 12.106 20.0854 12.1574 19.9845C12.2947 19.7203 12.2776 19.2976 12.1002 18.798C11.9115 18.26 11.9058 18.0535 12.0831 17.9238C12.1517 17.871 12.249 17.8133 12.2947 17.7989C12.4492 17.7461 12.8781 17.7989 13.0211 17.8902Z" fill="#18212A"/>
<path d="M7.82762 1.8705C7.47871 1.91373 7.16413 2.05784 6.91246 2.2836C6.61503 2.54299 6.50635 2.75434 6.47203 3.11941C6.43199 3.57574 6.56927 3.88317 6.94105 4.19539C7.57595 4.72858 8.52543 4.7478 9.20037 4.23863C9.85242 3.74867 9.91534 2.93688 9.34908 2.31722C9.18893 2.1443 8.59979 1.88491 8.29092 1.85609C8.18225 1.84168 7.97062 1.85129 7.82762 1.8705ZM8.63983 2.5574C9.06309 2.80238 9.17749 3.34517 8.88006 3.68622C8.81714 3.75347 8.67987 3.86395 8.57119 3.92159C8.41104 4.01766 8.31952 4.03208 8.04497 4.01766C7.50731 3.98404 7.19844 3.72465 7.15841 3.27312C7.14125 3.04255 7.15841 2.9657 7.2728 2.8312C7.4444 2.61985 7.65603 2.49015 7.89626 2.44692C8.11361 2.40849 8.47968 2.46133 8.63983 2.5574Z" fill="#18212A"/>
<path d="M9.92648 12.2701C8.51942 12.4382 7.9932 12.5487 7.4727 12.7841C7.08947 12.9522 6.94648 13.1011 6.86068 13.4133C6.77488 13.7496 6.62617 13.9609 6.22579 14.3308C6.03131 14.5085 5.80824 14.7775 5.72244 14.9264C5.59089 15.1618 5.57373 15.2579 5.57373 15.6758C5.57373 16.0937 5.59089 16.1897 5.72244 16.4203C6.04847 16.9919 6.60901 17.333 7.38118 17.4338C7.74153 17.4819 7.86164 17.4771 8.17623 17.4098C8.80541 17.2753 9.11427 17.0784 9.85213 16.3579C10.3211 15.9015 10.5442 15.8151 11.7111 15.6277C12.5004 15.5028 13.0094 15.2482 13.244 14.8784C13.6615 14.1915 12.9522 12.5967 12.06 12.222C11.6767 12.0635 11.5738 12.0683 9.92648 12.2701ZM11.774 12.7408C12.1915 12.9234 12.6949 13.8168 12.6949 14.3692C12.6949 14.5229 12.6548 14.5902 12.4775 14.7391C12.243 14.9408 12.0085 15.0081 11.1219 15.1426C10.3269 15.2627 9.87501 15.474 9.36594 15.9496C8.53658 16.7277 8.27919 16.8718 7.69005 16.8718C6.83208 16.8718 6.23722 16.3723 6.23722 15.6517C6.23151 15.3011 6.38022 15.0417 6.8092 14.6526C7.19243 14.302 7.36974 14.0426 7.51274 13.6295C7.56993 13.4517 7.65001 13.3317 7.73581 13.2836C8.00464 13.1347 8.69673 13.0002 9.98368 12.8465C11.528 12.6544 11.5681 12.6544 11.774 12.7408Z" fill="#18212A"/>
<path d="M16.0869 16.0889C15.4177 16.1945 14.9315 16.6749 14.9258 17.2321C14.9258 17.5876 15.023 17.8277 15.2632 18.0583C15.7837 18.5723 16.6989 18.6299 17.2995 18.188C17.6427 17.9334 17.7857 17.6692 17.7857 17.2801C17.7857 16.4972 16.9963 15.9448 16.0869 16.0889ZM16.7561 16.7373C16.9792 16.8526 17.0993 17.0496 17.0993 17.3042C17.0993 17.4867 17.065 17.5539 16.9105 17.698C16.7504 17.8421 16.6703 17.8758 16.4358 17.895C15.9496 17.9334 15.6122 17.6692 15.6122 17.2417C15.6122 17.064 15.6408 17.0063 15.8352 16.8478C16.0297 16.6845 16.0869 16.6605 16.3271 16.6605C16.4758 16.6605 16.6646 16.6941 16.7561 16.7373Z" fill="#18212A"/>
</svg>
