<svg width="30" height="31" viewBox="0 0 30 31" fill="none" xmlns="http://www.w3.org/2000/svg">
<path d="M13.9245 0.608841C13.826 0.620565 13.5093 0.661601 13.2207 0.696774C10.1731 1.07196 7.25228 3.28202 6.43585 5.83795C5.44346 8.92149 6.83703 12.0285 10.0113 13.834C12.1368 15.0475 15.128 15.3524 17.704 14.6196C19.6888 14.0568 21.6102 12.6264 22.6026 10.9791C22.9193 10.4515 23.2501 9.57806 23.3557 8.98597C23.4965 8.23561 23.4683 7.03971 23.2853 6.31866C22.6026 3.54582 19.907 1.30058 16.5638 0.720223C16.0289 0.626427 14.2975 0.550218 13.9245 0.608841ZM16.4935 2.50234C17.6196 2.74856 18.5627 3.21753 19.4777 3.97963C20.9135 5.18725 21.561 6.75832 21.3146 8.45837C21.1176 9.81255 20.463 10.8736 19.2032 11.8409C17.9504 12.814 16.6061 13.2478 14.8395 13.2537C13.833 13.2595 13.3122 13.1833 12.4676 12.9313C11.0177 12.4916 9.51859 11.3367 8.8218 10.1232C8.38544 9.34943 8.27282 8.88045 8.27282 7.81353C8.27282 6.68798 8.38544 6.25417 8.92034 5.35139C9.82827 3.83307 11.6512 2.68993 13.65 2.39682C14.2764 2.30303 15.8459 2.36165 16.4935 2.50234Z" fill="#18212A"/>
<path d="M7.03431 15.1179C4.26125 15.3992 2.24832 16.8707 1.09405 19.45C0.15093 21.5546 -0.285439 25.2185 0.200198 26.8951C0.66472 28.4837 2.05125 29.7324 3.96564 30.2776C5.04953 30.5883 5.05657 30.5883 15.0156 30.5883C24.8903 30.5883 24.9958 30.5824 26.0375 30.2952C27.9519 29.7559 29.3032 28.56 29.8452 26.9244C29.993 26.4964 30 26.3264 30 24.9899C29.993 22.9732 29.7325 21.4549 29.1202 19.8897C27.9941 16.982 25.9249 15.3934 22.8984 15.112C21.8286 15.0182 21.6949 15.0534 20.0691 15.921C18.8655 16.5658 18.4433 16.7476 17.5072 17.0055C15.8039 17.4745 14.2555 17.4862 12.6226 17.0348C11.6584 16.7651 11.222 16.5834 10.0467 15.962C8.3223 15.0475 8.16042 15.0006 7.03431 15.1179ZM8.80794 17.3807C10.1733 18.1135 10.8349 18.389 11.9399 18.6821C13.1012 18.9928 13.8754 19.0983 15.0156 19.0983C16.1629 19.0983 17.0075 18.9811 18.1406 18.6762C19.2245 18.3773 20.0128 18.0431 21.2937 17.3514L22.2861 16.812L22.8069 16.8707C24.4961 17.0465 25.6856 17.8203 26.5935 19.3269C27.3818 20.6401 27.8322 22.4691 27.9097 24.6381C27.9448 25.6464 27.9308 25.9513 27.8393 26.3206C27.5507 27.4813 26.6498 28.2844 25.1859 28.6889C24.8199 28.7944 24.3061 28.8003 15.2972 28.8179C4.78208 28.8355 5.1551 28.8472 4.17679 28.4603C3.24071 28.091 2.58615 27.4403 2.2624 26.5727C2.15682 26.2737 2.13571 26.0275 2.14275 24.9312C2.16386 21.2146 3.38851 18.3948 5.43663 17.3748C6.03488 17.0758 6.79501 16.8824 7.64663 16.8179C7.70294 16.8179 8.22376 17.07 8.80794 17.3807Z" fill="#18212A"/>
</svg>
