<svg width="200" height="50" viewBox="0 0 200 50" fill="none" xmlns="http://www.w3.org/2000/svg">
<g clip-path="url(#clip0_13_52)">
<g clip-path="url(#clip1_13_52)">
<path d="M199.532 10.7241C198.592 5.53406 195.912 4.09108 195.912 4.09108C187.685 -1.25455 177.417 -0.102115 168.193 0.665772C151.908 0.696974 135.689 1.83888 119.442 2.45116C85.3394 2.54477 50.9452 1.00859 17.0122 4.79697C13.8245 5.95953 -3.30691 5.02551 0.566979 11.3882C1.58235 14.0351 5.28735 16.9729 5.17408 19.4018C5.68177 19.8273 6.38717 18.8515 6.68804 19.4638C7.74133 21.1143 9.4616 20.3358 10.8724 21.3116C8.90689 23.9172 10.3172 26.0863 11.6617 28.3596C9.29271 28.9512 6.25569 28.6712 4.89242 30.6328C4.75134 32.0547 3.98981 31.7849 3.15294 31.7229C2.54159 31.6811 1.3098 31.8367 1.51661 32.2833C2.22202 33.8089 -0.805898 34.6915 1.09337 36.1859C-0.21326 37.8052 1.99649 39.2068 1.69562 40.961C1.65769 41.314 1.86451 41.6146 2.1937 41.6977C3.65102 42.1442 1.52622 43.0163 1.75175 43.9608C16.7017 50.4172 32.9208 45.9537 48.2374 48.9223C52.2144 46.8464 49.2244 49.6594 50.8137 49.2234C52.0546 48.7149 52.9573 50.822 54.3584 49.6282C54.5749 49.2858 54.2457 48.4762 55.0163 48.6318C55.4208 48.7149 55.7784 48.6938 55.8345 48.2164C55.9194 47.5004 55.1766 47.9466 54.9789 47.573C57.1133 45.6838 56.5869 50.1781 58.5893 49.9913C58.4953 49.4414 57.9128 48.6525 59.1066 48.7562C60.2914 47.9672 60.3288 47.3136 61.3821 49.0885C61.4195 49.4726 61.6076 49.7425 61.9085 49.9293C65.1994 47.9984 68.4715 50.6141 71.9222 49.7425C74.0379 48.7874 76.0686 50.2612 78.2121 49.8981C78.9645 49.6075 79.7261 49.0885 80.4502 49.9605C89.3165 50.1473 98.7658 49.3685 107.172 49.9913C129.634 48.8287 153.639 50.469 177.323 48.9329C182.908 48.3412 188.71 47.5004 194.154 46.8257C194.154 46.8257 198.564 44.9779 198.564 36.6738C198.564 28.3697 199.504 29.4079 199.645 22.7959C199.786 16.184 200.444 15.9141 199.504 10.7241H199.532Z" fill="#2A2C35"/>
<g clip-path="url(#clip2_13_52)">
<path d="M35.5626 26.9912L38.4896 30.8479C37.2062 31.7331 35.7677 32.4117 34.174 32.8837C32.5855 33.36 30.9366 33.5982 29.2272 33.5982C27.9175 33.5982 26.6552 33.4612 25.4401 33.1872C24.2251 32.9133 23.089 32.5276 22.0318 32.0302C20.9746 31.5286 20.0094 30.928 19.1363 30.2283C18.2579 29.5286 17.5084 28.7552 16.8878 27.908C16.2671 27.0608 15.7859 26.1504 15.444 25.1767C15.1021 24.2031 14.9312 23.1915 14.9312 22.1419C14.9312 21.0924 15.1021 20.0787 15.444 19.1009C15.7859 18.123 16.2671 17.2105 16.8878 16.3632C17.5084 15.5118 18.2579 14.7363 19.1363 14.0366C20.0094 13.3369 20.9746 12.7384 22.0318 12.241C23.089 11.7437 24.2251 11.358 25.4401 11.084C26.6552 10.8101 27.9175 10.6731 29.2272 10.6731C30.9366 10.6731 32.5855 10.907 34.174 11.3749C35.7677 11.8427 37.2062 12.5255 38.4896 13.4233L35.5626 17.28C34.7526 16.5803 33.7953 16.0429 32.6907 15.6678C31.5862 15.2927 30.4317 15.1051 29.2272 15.1051C28.0069 15.1051 26.8629 15.2905 25.7952 15.6615C24.7327 16.0324 23.8017 16.534 23.0023 17.1662C22.208 17.7984 21.5795 18.5445 21.1166 19.4043C20.6538 20.2642 20.4223 21.1767 20.4223 22.1419C20.4223 23.1114 20.6538 24.0197 21.1166 24.8669C21.5795 25.7141 22.208 26.4581 23.0023 27.0987C23.8017 27.7352 24.7327 28.2389 25.7952 28.6098C26.8629 28.9807 28.0069 29.1662 29.2272 29.1662C30.4317 29.1662 31.5862 28.9786 32.6907 28.6035C33.7953 28.2283 34.7526 27.6909 35.5626 26.9912ZM60.3912 16.6161V33.1177H59.121L57.0776 30.8479C56.5779 31.2104 56.0467 31.5476 55.4839 31.8595C54.9264 32.1714 54.3399 32.4433 53.7245 32.6751C53.1091 32.9069 52.4779 33.0903 51.831 33.2252C51.1788 33.36 50.5187 33.4275 49.8507 33.4275C48.399 33.4275 47.0341 33.2315 45.756 32.8395C44.4831 32.4475 43.368 31.8785 42.4108 31.1324C41.4535 30.3864 40.6987 29.4739 40.1464 28.3948C39.5942 27.3158 39.318 26.085 39.318 24.7025C39.318 23.417 39.5942 22.2368 40.1464 21.162C40.6987 20.0872 41.4535 19.1641 42.4108 18.3927C43.368 17.6214 44.4831 17.0208 45.756 16.5909C47.0341 16.1651 48.399 15.9523 49.8507 15.9523C50.5187 15.9523 51.1814 16.0197 51.8389 16.1546C52.4911 16.2895 53.1249 16.4749 53.7403 16.711C54.3609 16.947 54.95 17.2252 55.5076 17.5455C56.0651 17.8617 56.5884 18.2052 57.0776 18.5761L59.121 16.6161H60.3912ZM55.0894 24.7025C55.0894 24.1293 54.9527 23.5729 54.6791 23.0334C54.4004 22.4897 54.0243 22.0092 53.5509 21.5919C53.0775 21.1788 52.5226 20.8458 51.8862 20.593C51.2498 20.3401 50.5713 20.2136 49.8507 20.2136C49.1354 20.2136 48.4595 20.3105 47.823 20.5044C47.1866 20.7025 46.6343 20.9913 46.1662 21.3706C45.6981 21.75 45.3273 22.2199 45.0538 22.7805C44.7855 23.3453 44.6514 23.986 44.6514 24.7025C44.6514 25.4233 44.7855 26.064 45.0538 26.6245C45.3273 27.1851 45.6981 27.6572 46.1662 28.0408C46.6343 28.4201 47.1866 28.7067 47.823 28.9006C48.4595 29.0987 49.1354 29.1978 49.8507 29.1978C50.5713 29.1978 51.2498 29.0713 51.8862 28.8184C52.5226 28.5655 53.0775 28.2304 53.5509 27.8132C54.0243 27.3959 54.4004 26.9175 54.6791 26.378C54.9527 25.8385 55.0894 25.28 55.0894 24.7025ZM90.6322 22.6224V33.1177H85.3856V22.6224C85.3856 22.3316 85.3199 22.0576 85.1884 21.8005C85.0516 21.5434 84.8623 21.3179 84.6203 21.124C84.3731 20.9301 84.0891 20.7784 83.7682 20.6688C83.4474 20.5592 83.1081 20.5044 82.7505 20.5044C82.3928 20.5044 82.0562 20.5592 81.7406 20.6688C81.425 20.7784 81.1489 20.9301 80.9122 21.124C80.6755 21.3179 80.4888 21.5434 80.352 21.8005C80.2153 22.0576 80.1469 22.3316 80.1469 22.6224V33.1177H74.8924V22.6224C74.8924 22.3316 74.824 22.0576 74.6873 21.8005C74.5558 21.5434 74.3664 21.3179 74.1192 21.124C73.8773 20.9301 73.5959 20.7784 73.275 20.6688C72.9542 20.5592 72.6123 20.5044 72.2494 20.5044C71.8917 20.5044 71.5551 20.5592 71.2395 20.6688C70.9239 20.7784 70.6478 20.9301 70.4111 21.124C70.1744 21.3179 69.9877 21.5434 69.8509 21.8005C69.7194 22.0576 69.6537 22.3316 69.6537 22.6224V33.1177H64.3913V16.5845H65.6615L67.0895 17.849C67.8207 17.3559 68.628 16.9744 69.5117 16.7047C70.39 16.4307 71.3026 16.2937 72.2494 16.2937C73.2172 16.2937 74.1587 16.437 75.0739 16.7236C75.9943 17.0145 76.7991 17.5139 77.4881 18.222C77.8142 17.8722 78.1824 17.5729 78.5926 17.3243C79.0029 17.0798 79.4342 16.8796 79.8865 16.7236C80.3441 16.5719 80.8175 16.4623 81.3067 16.3949C81.7958 16.3274 82.2771 16.2937 82.7505 16.2937C83.8392 16.2937 84.8623 16.4581 85.8195 16.7869C86.7768 17.1156 87.6131 17.5666 88.3285 18.1398C89.0385 18.7089 89.5987 19.379 90.0089 20.1504C90.4245 20.9217 90.6322 21.7457 90.6322 22.6224ZM99.7526 32.0049V39.4148H94.4587V16.5845H95.7289L97.8276 18.5761C98.3062 18.2178 98.8269 17.8785 99.3897 17.5582C99.9578 17.2379 100.544 16.9618 101.149 16.7299C101.759 16.5023 102.393 16.3211 103.051 16.1862C103.703 16.0513 104.363 15.9839 105.031 15.9839C106.483 15.9839 107.847 16.1925 109.126 16.6098C110.404 17.0271 111.521 17.6151 112.479 18.3738C113.436 19.1367 114.191 20.0555 114.743 21.1304C115.295 22.2052 115.571 23.3959 115.571 24.7025C115.571 26.064 115.295 27.2863 114.743 28.3695C114.191 29.457 113.436 30.378 112.479 31.1324C111.521 31.8911 110.404 32.4707 109.126 32.8711C107.847 33.2715 106.483 33.4717 105.031 33.4717C104.573 33.4717 104.116 33.4317 103.658 33.3516C103.2 33.2673 102.751 33.1556 102.309 33.0165C101.867 32.8774 101.431 32.7215 100.999 32.5487C100.568 32.3716 100.152 32.1904 99.7526 32.0049ZM110.293 24.7025C110.293 24.0028 110.154 23.3769 109.875 22.8248C109.602 22.2684 109.228 21.7963 108.755 21.4085C108.276 21.025 107.716 20.7299 107.074 20.5234C106.433 20.3169 105.751 20.2136 105.031 20.2136C104.315 20.2136 103.64 20.3169 103.003 20.5234C102.367 20.7299 101.812 21.025 101.338 21.4085C100.86 21.7963 100.484 22.2684 100.21 22.8248C99.9315 23.3769 99.7921 24.0028 99.7921 24.7025C99.7921 25.3727 99.9315 25.986 100.21 26.5424C100.484 27.0987 100.86 27.5729 101.338 27.9649C101.812 28.3527 102.367 28.6562 103.003 28.8753C103.64 29.0903 104.315 29.1978 105.031 29.1978C105.751 29.1978 106.433 29.0903 107.074 28.8753C107.716 28.6562 108.276 28.3527 108.755 27.9649C109.228 27.5729 109.602 27.0987 109.875 26.5424C110.154 25.986 110.293 25.3727 110.293 24.7025ZM135.366 33.1177L133.639 31.1893C133.213 31.497 132.76 31.7879 132.282 32.0618C131.798 32.3316 131.293 32.5676 130.767 32.7699C130.241 32.9723 129.699 33.1324 129.142 33.2504C128.579 33.3685 128.011 33.4275 127.437 33.4275C126.165 33.4275 124.968 33.2462 123.848 32.8837C122.733 32.5255 121.754 32.0134 120.913 31.3474C120.071 30.6856 119.411 29.8785 118.932 28.9259C118.448 27.9733 118.207 26.9069 118.207 25.7268V16.5845H123.445V25.7268C123.445 26.2789 123.55 26.7742 123.761 27.2125C123.976 27.6509 124.263 28.0197 124.621 28.319C124.978 28.6182 125.399 28.8437 125.883 28.9955C126.367 29.1514 126.885 29.2294 127.437 29.2294C127.974 29.2294 128.484 29.1282 128.968 28.9259C129.447 28.7278 129.867 28.4623 130.23 28.1293C130.588 27.8005 130.869 27.4275 131.075 27.0102C131.28 26.5971 131.382 26.1693 131.382 25.7268V16.5845H136.645V33.1177H135.366ZM151.974 33.1177H139.95V28.9196H151.974C152.332 28.9196 152.64 28.8163 152.897 28.6098C153.155 28.4033 153.284 28.1567 153.284 27.8701C153.284 27.5708 153.155 27.3748 152.897 27.2821C152.64 27.1893 152.332 27.143 151.974 27.143H146.499C145.589 27.143 144.737 27.0039 143.943 26.7257C143.143 26.4475 142.449 26.0703 141.86 25.594C141.271 25.1135 140.805 24.555 140.463 23.9185C140.121 23.2821 139.95 22.5972 139.95 21.8638C139.95 21.1346 140.121 20.4517 140.463 19.8153C140.805 19.1746 141.271 18.6182 141.86 18.1462C142.449 17.6741 143.143 17.3011 143.943 17.0271C144.737 16.7531 145.589 16.6161 146.499 16.6161H157.15V20.8142H146.499C146.141 20.8142 145.833 20.9175 145.576 21.124C145.318 21.3306 145.189 21.5771 145.189 21.8638C145.189 22.163 145.318 22.418 145.576 22.6288C145.833 22.8395 146.141 22.9449 146.499 22.9449H151.974C152.874 22.9449 153.72 23.065 154.515 23.3053C155.309 23.5497 156.003 23.8869 156.597 24.3169C157.187 24.751 157.655 25.2715 158.002 25.8785C158.349 26.4855 158.523 27.1493 158.523 27.8701C158.523 28.5992 158.349 29.28 158.002 29.9122C157.655 30.5487 157.187 31.105 156.597 31.5813C156.003 32.0618 155.309 32.437 154.515 32.7067C153.72 32.9807 152.874 33.1177 151.974 33.1177Z" fill="#F4EBE4"/>
</g>
<g clip-path="url(#clip3_13_52)">
<g clip-path="url(#clip4_13_52)">
<path d="M177.659 24.6045C177.659 24.3373 177.534 24.0868 177.306 23.899C176.848 23.5218 176.047 23.5218 175.591 23.8983C175.478 23.9909 175.389 24.101 175.328 24.2223C175.267 24.3436 175.235 24.4736 175.236 24.6049C175.236 24.8714 175.361 25.1233 175.589 25.3119C175.819 25.5012 176.124 25.605 176.447 25.605C176.771 25.605 177.076 25.5012 177.304 25.3119C177.534 25.1229 177.66 24.8718 177.659 24.6045ZM176.751 24.855C176.588 24.989 176.306 24.989 176.145 24.855C176.085 24.8057 176.044 24.7427 176.027 24.6741C176.011 24.6055 176.019 24.5343 176.051 24.4696C176.084 24.4049 176.139 24.3497 176.21 24.3109C176.28 24.2721 176.363 24.2515 176.448 24.2518C176.562 24.2518 176.67 24.2889 176.752 24.3555C176.832 24.4221 176.876 24.5119 176.876 24.6055C176.876 24.699 176.831 24.7887 176.751 24.855Z" fill="#F4EBE4"/>
<path d="M180.122 19.206C179.742 19.5207 179.529 19.9468 179.529 20.391C179.529 20.8351 179.742 21.2612 180.122 21.576C180.311 21.7318 180.535 21.8554 180.781 21.9396C181.028 22.0237 181.292 22.0668 181.559 22.0664C181.826 22.067 182.091 22.0239 182.337 21.9396C182.584 21.8553 182.808 21.7314 182.996 21.5752C183.186 21.4202 183.337 21.2355 183.439 21.0319C183.541 20.8283 183.593 20.6099 183.592 20.3895C183.593 20.1696 183.54 19.9518 183.438 19.7487C183.336 19.5456 183.186 19.3614 182.996 19.2067C182.231 18.5732 180.891 18.571 180.122 19.206ZM182.442 21.1191C181.972 21.5072 181.148 21.5072 180.677 21.1191C180.502 20.975 180.383 20.7916 180.335 20.5919C180.287 20.3922 180.312 20.1853 180.406 19.9971C180.501 19.809 180.66 19.6482 180.866 19.5349C181.071 19.4216 181.312 19.361 181.559 19.3607C181.723 19.3603 181.886 19.3869 182.037 19.4389C182.189 19.4909 182.327 19.5673 182.442 19.6636C182.678 19.8576 182.808 20.1154 182.808 20.3895C182.809 20.5251 182.777 20.6595 182.714 20.7847C182.651 20.91 182.559 21.0237 182.442 21.1191Z" fill="#F4EBE4"/>
<path d="M192.393 17.3296C192.393 15.2468 190.843 13.459 188.645 12.7039C188.661 12.5779 188.67 12.4498 188.67 12.3202C188.67 10.1817 186.561 8.44298 183.968 8.44298C183.32 8.44298 182.703 8.55111 182.141 8.74733C181.322 7.60019 179.815 6.82693 178.088 6.82693C176.731 6.82693 175.511 7.30603 174.651 8.06618C173.917 7.78242 173.117 7.63526 172.307 7.63514C169.227 7.63514 166.723 9.7008 166.723 12.2397V12.2474C164.157 12.662 162.216 14.5293 162.216 16.7639C162.215 17.3711 162.361 17.9723 162.644 18.5328C162.928 19.0932 163.343 19.6017 163.867 20.0287C163.262 20.6953 162.934 21.5053 162.933 22.3379C162.933 24.4764 165.043 26.2151 167.637 26.2151C168.168 26.2151 168.676 26.1369 169.154 26.0018C168.913 26.7622 168.791 27.545 168.791 28.331C168.791 30.4771 169.755 33.2443 171.326 35.3449L169.268 42.3752C169.24 42.4703 169.238 42.5694 169.264 42.6649C169.289 42.7605 169.34 42.85 169.414 42.9268C169.487 43.0037 169.581 43.0657 169.688 43.1083C169.794 43.151 169.912 43.173 170.03 43.1729C170.206 43.1726 170.377 43.1238 170.515 43.0341C170.653 42.9445 170.751 42.8193 170.792 42.6785L172.54 36.7058C173.675 37.7586 175.007 38.4456 176.463 38.4456C177.891 38.4456 179.185 37.7823 180.283 36.7571L182.036 42.7382C182.06 42.8208 182.103 42.8986 182.164 42.9672C182.225 43.0359 182.301 43.094 182.389 43.1383C182.477 43.1825 182.574 43.2121 182.676 43.2252C182.778 43.2383 182.882 43.2348 182.982 43.2148C183.082 43.1949 183.176 43.159 183.26 43.109C183.343 43.0591 183.413 42.996 183.467 42.9236C183.521 42.8511 183.557 42.7706 183.573 42.6867C183.588 42.6028 183.584 42.5171 183.56 42.4346L181.493 35.381C181.776 34.9857 182.033 34.5785 182.264 34.161C182.548 34.1836 182.834 34.204 183.129 34.204C186.776 34.204 189.743 32.4405 189.743 30.2718C189.743 28.2098 187.058 26.5166 183.658 26.3546C183.58 26.0673 183.49 25.783 183.38 25.5056C183.796 25.6057 184.229 25.6763 184.686 25.6763C187.279 25.6763 189.388 23.9369 189.388 21.7984C189.388 21.7474 189.381 21.6983 189.378 21.6473C191.179 20.7776 192.393 19.1703 192.393 17.3296ZM176.462 37.1518C173.376 37.1518 170.358 32.1019 170.358 28.3318C170.358 26.9851 170.759 25.6934 171.518 24.5973C172.652 22.959 174.465 21.9812 176.364 21.9812C176.745 21.9812 177.12 22.0307 177.487 22.1057C177.202 22.5673 177.284 23.1461 177.751 23.5328C177.889 23.6466 178.053 23.7368 178.233 23.7982C178.413 23.8596 178.607 23.891 178.802 23.8906C179.048 23.891 179.291 23.8405 179.508 23.7437C179.725 23.6469 179.909 23.507 180.044 23.3365C180.525 23.7336 180.937 24.1841 181.267 24.6748C181.627 25.2166 181.901 25.7945 182.082 26.3942C178.932 26.6935 176.515 28.3168 176.515 30.2722C176.515 30.9002 176.772 31.4932 177.214 32.0218L176.551 33.9466L179.151 33.406C179.625 33.6193 180.155 33.7871 180.714 33.9193C179.603 35.7771 178.06 37.1518 176.462 37.1518ZM178.255 22.3183C178.274 22.2975 178.283 22.2739 178.305 22.2553C178.437 22.1464 178.614 22.0864 178.802 22.0864C178.989 22.0864 179.166 22.1464 179.298 22.2546C179.507 22.4293 179.552 22.6856 179.438 22.8982C179.406 22.9639 179.358 23.0238 179.298 23.0744C179.032 23.2928 178.569 23.2914 178.305 23.0759C178.055 22.868 178.045 22.5447 178.255 22.3183ZM183.839 27.2065C186.589 27.4005 188.724 28.7002 188.724 30.2725C188.724 31.9785 186.213 33.3663 183.128 33.3663C182.977 33.3663 182.835 33.3506 182.687 33.3444C182.143 33.3201 181.619 33.2611 181.131 33.1566C180.574 33.0375 180.056 32.8755 179.602 32.6709C179.55 32.648 179.502 32.6214 179.452 32.5985L177.757 32.9502L178.185 31.7124C178 31.5214 177.848 31.31 177.734 31.0844C177.603 30.8272 177.535 30.5514 177.532 30.2725C177.532 28.7289 179.589 27.4496 182.267 27.2192C182.55 27.1959 182.835 27.1795 183.129 27.1795C183.37 27.1792 183.605 27.1908 183.839 27.2065ZM189.02 20.2963C188.596 20.5609 188.118 20.7614 187.609 20.8886C187.741 21.1722 187.82 21.4777 187.82 21.7988C187.82 21.9313 187.797 22.0587 187.772 22.1861C187.544 23.4275 186.254 24.3839 184.685 24.3839C184.376 24.3839 183.203 24.1491 182.606 24.0082C181.194 21.9291 178.864 20.6877 176.365 20.6877C173.895 20.6877 171.574 21.9098 170.156 23.9569C170.152 23.9642 170.148 23.9722 170.143 23.9798C169.967 24.0952 169.636 24.3191 169.631 24.3151C169.087 24.6886 168.397 24.9224 167.636 24.9224C166.805 24.9217 166.008 24.6491 165.42 24.1644C164.832 23.6797 164.502 23.0226 164.501 22.3372C164.501 21.7609 164.738 21.2337 165.126 20.8042C165.413 20.4842 166.627 19.8613 166.627 19.8613C166.627 19.8613 165.321 19.3902 164.997 19.1295C164.613 18.8221 164.307 18.4543 164.099 18.0479C163.89 17.6414 163.783 17.2045 163.782 16.7631C163.782 15.178 165.143 13.8521 166.949 13.5292V13.5307C166.95 13.5307 166.95 13.5292 166.952 13.5285C167.23 13.4776 167.515 13.4516 167.8 13.4509C168.074 13.4509 168.343 13.4746 168.602 13.5183C168.396 13.1131 168.291 12.6783 168.291 12.239C168.291 12.2182 168.296 12.199 168.297 12.1789C168.299 12.057 168.322 11.939 168.341 11.82C168.594 10.1934 170.265 8.92681 172.307 8.92681C172.71 8.92681 173.093 8.99125 173.46 9.08299C173.564 9.10884 173.673 9.13032 173.774 9.16309C174.28 9.32634 174.741 9.57255 175.128 9.88683C175.298 9.46601 175.597 9.08878 175.997 8.79211C176.023 8.77282 176.05 8.75571 176.076 8.73823C176.623 8.35852 177.318 8.1197 178.088 8.1197C179.263 8.1197 180.276 8.66105 180.814 9.45142C180.824 9.46817 181.171 10.8439 181.171 10.8439C181.171 10.8439 182.556 10.0121 182.701 9.95964C183.1 9.81186 183.531 9.7353 183.968 9.73502C185.696 9.73502 187.104 10.8942 187.104 12.3202C187.104 12.3366 187.096 12.3504 187.096 12.3661C187.085 12.8106 186.934 13.2451 186.658 13.6268C187.214 13.6617 187.738 13.7786 188.221 13.9646C189.756 14.5573 190.826 15.8399 190.826 17.3296C190.825 18.5423 190.113 19.6177 189.02 20.2963Z" fill="#F4EBE4"/>
<path d="M167.695 14.2657V18.1829H174.847V14.2657H167.695ZM168.086 17.86V14.5882H169.941V17.86H168.086ZM174.455 17.86H172.508V14.5882H174.455V17.86Z" fill="#F4EBE4"/>
<path d="M179.553 14.2657V18.1829H186.704V14.2657H179.553ZM186.314 14.5882V15.6385H179.945V14.5882H186.314ZM179.945 17.86V16.8505H186.314V17.86H179.945Z" fill="#F4EBE4"/>
<path d="M180.336 28.6001V31.7663H186.117V28.6001H180.336ZM185.8 28.86V29.709H180.654V28.86H185.8ZM180.654 31.5045V30.6887H185.8V31.5045H180.654Z" fill="#F4EBE4"/>
<path d="M178.466 16.1839L177.014 15.4929V15.9531H176.142C176.067 15.9531 175.996 15.9774 175.943 16.0208C175.891 16.0642 175.861 16.123 175.861 16.1843C175.861 16.2456 175.891 16.3044 175.943 16.3477C175.996 16.3911 176.067 16.4154 176.142 16.4154H177.014V16.8749L178.466 16.1839Z" fill="#F4EBE4"/>
</g>
</g>
</g>
</g>
<defs>
<clipPath id="clip0_13_52">
<rect width="200" height="50" fill="white"/>
</clipPath>
<clipPath id="clip1_13_52">
<rect width="200" height="50" fill="white"/>
</clipPath>
<clipPath id="clip2_13_52">
<rect width="143.6" height="28.7417" fill="white" transform="translate(14.9272 10.6731)"/>
</clipPath>
<clipPath id="clip3_13_52">
<rect width="30.1774" height="36.406" fill="white" transform="translate(162.216 6.82693)"/>
</clipPath>
<clipPath id="clip4_13_52">
<rect width="30.1774" height="36.406" fill="white" transform="translate(162.216 6.82693)"/>
</clipPath>
</defs>
</svg>
